# xmcd
#
# Track frame offsets:
#	150
#	13772
#	26325
#	40180
#	51972
#	67162
#	80712
#	93575
#	106852
#	121350
#	134270
#	147990
#	161037
#	171870
#
# Disc length: 2459 seconds
#
# Revision: 1
# Processed by: cddbd v1.5.2PL0 Copyright (c) Steve Scherf et al.
# Submitted via: EasyCDDAExtractor 2011.0.0.0
#
DISCID=c309990e
DTITLE=Various Artist - Blues Anthology
DYEAR=1900
DGENRE=Blues
TTITLE0=Robert Johnson - Terraplane Blues
TTITLE1=Walter Davis - Sweet Sixteen
TTITLE2=Muddy Waters - I Be's Troubled
TTITLE3=Leadbelly - Fannin' Street
TTITLE4=Bessie Smith - Careless Love Blues
TTITLE5=Blind William McTell - Scarey Day Blues
TTITLE6=Missisippi John Hurt - Got The Blues, Can't Be Satisfied
TTITLE7=Johnny Temple - Louise Louise Blues
TTITLE8=Clara Smith - Whip It To A Jelly
TTITLE9=Big Maceo - Worried Life Blues
TTITLE10=Bumble Bee Slim - Feather Bed Blues
TTITLE11=Washboard Sam - She Fooled Me
TTITLE12=Memphis Minnie - Pig Meat On The Line
TTITLE13=Black Ivory King - The Flying Crow
EXTD=
EXTT0=
EXTT1=
EXTT2=
EXTT3=
EXTT4=
EXTT5=
EXTT6=
EXTT7=
EXTT8=
EXTT9=
EXTT10=
EXTT11=
EXTT12=
EXTT13=
PLAYORDER=
